<svg id="bin_1_" data-name="bin (1)" xmlns="http://www.w3.org/2000/svg" width="14.178" height="19.688" viewBox="0 0 14.178 19.688">
  <path id="Tracé_403" data-name="Tracé 403" d="M222.807,154.7a.437.437,0,0,0-.409.461v8.714a.412.412,0,1,0,.818,0v-8.714A.437.437,0,0,0,222.807,154.7Zm0,0" transform="translate(-213.306 -147.57)" fill="#c82121"/>
  <path id="Tracé_404" data-name="Tracé 404" d="M104.807,154.7a.437.437,0,0,0-.409.461v8.714a.412.412,0,1,0,.818,0v-8.714A.437.437,0,0,0,104.807,154.7Zm0,0" transform="translate(-100.13 -147.57)" fill="#c82121"/>
  <path id="Tracé_405" data-name="Tracé 405" d="M1.158,5.86V17.22a2.732,2.732,0,0,0,.6,1.754,1.913,1.913,0,0,0,1.461.712h7.735a1.913,1.913,0,0,0,1.461-.712,2.732,2.732,0,0,0,.6-1.754V5.86a1.768,1.768,0,0,0,1.148-1.93A1.639,1.639,0,0,0,12.613,2.4H10.52V1.82A1.936,1.936,0,0,0,10.048.527,1.518,1.518,0,0,0,8.9,0H5.271A1.518,1.518,0,0,0,4.123.527,1.936,1.936,0,0,0,3.652,1.82V2.4H1.558A1.639,1.639,0,0,0,.01,3.93,1.768,1.768,0,0,0,1.158,5.86Zm9.8,12.9H3.218A1.4,1.4,0,0,1,1.975,17.22V5.9H12.2V17.22a1.4,1.4,0,0,1-1.243,1.545ZM4.469,1.82A.949.949,0,0,1,4.7,1.179.743.743,0,0,1,5.271.921H8.9a.743.743,0,0,1,.569.258A.949.949,0,0,1,9.7,1.82V2.4H4.469Zm-2.911,1.5H12.613a.787.787,0,0,1,.736.83.787.787,0,0,1-.736.83H1.558a.787.787,0,0,1-.736-.83A.787.787,0,0,1,1.558,3.318Zm0,0" transform="translate(0.003 0.002)" fill="#c82121"/>
  <path id="Tracé_406" data-name="Tracé 406" d="M163.807,154.7a.437.437,0,0,0-.409.461v8.714a.412.412,0,1,0,.818,0v-8.714A.437.437,0,0,0,163.807,154.7Zm0,0" transform="translate(-156.718 -147.57)" fill="#c82121"/>
</svg>
