<svg xmlns="http://www.w3.org/2000/svg" width="20.089" height="17.857" viewBox="0 0 20.089 17.857">
  <path id="Icon_awesome-shopping-cart" data-name="Icon awesome-shopping-cart" d="M18.419,10.509l1.649-7.254a.837.837,0,0,0-.816-1.023H5.553L5.233.669A.837.837,0,0,0,4.413,0H.837A.837.837,0,0,0,0,.837V1.4a.837.837,0,0,0,.837.837H3.274L5.724,14.21a1.953,1.953,0,1,0,2.338.3h7.312a1.953,1.953,0,1,0,2.218-.363l.192-.847a.837.837,0,0,0-.816-1.023H7.607l-.228-1.116H17.6A.837.837,0,0,0,18.419,10.509Z" fill="#0373bc"/>
</svg>
