<svg xmlns="http://www.w3.org/2000/svg" width="15.5" height="20.419" viewBox="0 0 15.5 20.419">
  <g id="ordre" transform="translate(0 20.419) rotate(-90)">
    <path id="Tracé_486" data-name="Tracé 486" d="M20.109,2.443H6.367V.209c0-.138-.078-.238-.157-.2L.092,2.762a.267.267,0,0,0,0,.4L6.21,5.921c.079.036.157-.065.157-.2V3.485H20.109c.171,0,.31-.233.31-.521S20.281,2.443,20.109,2.443Z" fill="#0373bc"/>
    <path id="Tracé_487" data-name="Tracé 487" d="M20.321,2.76,14.209.007c-.08-.036-.158.065-.158.2V2.443H.31c-.171,0-.31.233-.31.521s.139.521.31.521H14.051V5.716c0,.139.078.24.158.2l6.112-2.753A.27.27,0,0,0,20.321,2.76Z" transform="translate(0.002 9.573)" fill="#0373bc"/>
  </g>
</svg>
