<svg xmlns="http://www.w3.org/2000/svg" width="17.423" height="17.423" viewBox="0 0 17.423 17.423">
  <g id="print" transform="translate(-119.288 -129.288)">
    <path id="Tracé_577" data-name="Tracé 577" d="M15.608,14.712H13.43a.363.363,0,0,1,0-.726h2.178A1.09,1.09,0,0,0,16.7,12.9V7.815a1.09,1.09,0,0,0-1.089-1.089H1.815A1.09,1.09,0,0,0,.726,7.815V12.9a1.09,1.09,0,0,0,1.089,1.089H3.993a.363.363,0,0,1,0,.726H1.815A1.817,1.817,0,0,1,0,12.9V7.815A1.817,1.817,0,0,1,1.815,6H15.608a1.817,1.817,0,0,1,1.815,1.815V12.9A1.817,1.817,0,0,1,15.608,14.712Z" transform="translate(119.288 127.644)" fill="#0373bc"/>
    <path id="Tracé_578" data-name="Tracé 578" d="M12.719,20.726H8.363a.363.363,0,0,1,0-.726h4.356a.363.363,0,1,1,0,.726Z" transform="translate(117.096 123.808)" fill="#0373bc"/>
    <path id="Tracé_579" data-name="Tracé 579" d="M12.719,18.726H8.363a.363.363,0,1,1,0-.726h4.356a.363.363,0,1,1,0,.726Z" transform="translate(117.096 124.356)" fill="#0373bc"/>
    <path id="Tracé_580" data-name="Tracé 580" d="M9.815,16.726H8.363a.363.363,0,1,1,0-.726H9.815a.363.363,0,1,1,0,.726Z" transform="translate(117.096 124.904)" fill="#0373bc"/>
    <path id="Tracé_581" data-name="Tracé 581" d="M14.8,5.082a.363.363,0,0,1-.363-.363v-2.9A1.09,1.09,0,0,0,13.349.726H6.815A1.09,1.09,0,0,0,5.726,1.815v2.9a.363.363,0,0,1-.726,0v-2.9A1.817,1.817,0,0,1,6.815,0h6.534a1.817,1.817,0,0,1,1.815,1.815v2.9A.363.363,0,0,1,14.8,5.082Z" transform="translate(117.918 129.288)" fill="#0373bc"/>
    <path id="Tracé_582" data-name="Tracé 582" d="M13.349,20.986H6.815A1.817,1.817,0,0,1,5,19.171V13.363A.363.363,0,0,1,5.363,13H14.8a.363.363,0,0,1,.363.363v5.808A1.817,1.817,0,0,1,13.349,20.986Zm-7.623-7.26v5.445A1.09,1.09,0,0,0,6.815,20.26h6.534a1.09,1.09,0,0,0,1.089-1.089V13.726Z" transform="translate(117.918 125.726)" fill="#0373bc"/>
  </g>
</svg>
