<svg xmlns="http://www.w3.org/2000/svg" width="25" height="22" viewBox="0 0 25 22">
  <path id="Icon_awesome-heart-outline" data-name="Icon awesome-heart-outline" d="M6.261,1.748a7.254,7.254,0,0,1,5.175,2.226L12,4.555l.565-.582A7.264,7.264,0,0,1,17.74,1.748h0A6.472,6.472,0,0,1,21.994,3.3a7.1,7.1,0,0,1,2.5,5.121,7.22,7.22,0,0,1-2,5.352l-9.07,9.365a1.97,1.97,0,0,1-2.842,0l-9.07-9.366a7.223,7.223,0,0,1-2-5.353A7.105,7.105,0,0,1,2,3.3,6.473,6.473,0,0,1,6.261,1.748ZM12,5.991,10.717,4.669A6.25,6.25,0,0,0,6.261,2.748,5.486,5.486,0,0,0,2.654,4.064,6.115,6.115,0,0,0,.506,8.471a6.22,6.22,0,0,0,1.718,4.61l9.07,9.365a.97.97,0,0,0,1.405,0l9.07-9.365a6.217,6.217,0,0,0,1.722-4.609,6.112,6.112,0,0,0-2.147-4.408A5.484,5.484,0,0,0,17.74,2.748h0a6.259,6.259,0,0,0-4.458,1.921Z" transform="translate(0.501 -1.748)" fill="#0373bc"/>
</svg>
