<svg id="Logo_Devis_chef" xmlns="http://www.w3.org/2000/svg" width="268.138" height="61.944" viewBox="0 0 268.138 61.944">
  <path id="Tracé_685" data-name="Tracé 685" d="M312.827,47.426a17.767,17.767,0,0,0-5.949,3.826,17.229,17.229,0,0,0-3.927,5.972,20.876,20.876,0,0,0-1.412,7.8,21.529,21.529,0,0,0,1.417,7.846A18.372,18.372,0,0,0,320.331,84.8H337.19V79.815H320.414a13.734,13.734,0,0,1-5.506-1.1,13.24,13.24,0,0,1-4.361-3.018,13.843,13.843,0,0,1-2.861-4.615,15.863,15.863,0,0,1-1.029-5.741,15.59,15.59,0,0,1,1.029-5.741,13.67,13.67,0,0,1,2.866-4.5,13.071,13.071,0,0,1,4.366-2.963,14.076,14.076,0,0,1,5.5-1.066H337.2V46.079H320.34A20.358,20.358,0,0,0,312.827,47.426Z" transform="translate(-162.374 -24.812)" fill="#0373bc"/>
  <rect id="Rectangle_340" data-name="Rectangle 340" width="4.897" height="28.729" transform="translate(179.089 31.29)" fill="#0373bc"/>
  <rect id="Rectangle_341" data-name="Rectangle 341" width="4.897" height="28.729" transform="translate(96.137 31.29)" fill="#0373bc"/>
  <path id="Tracé_686" data-name="Tracé 686" d="M420.271,79.7H403.73v4.223h16.541v12.6h4.9V67.8h-4.9Z" transform="translate(-217.404 -36.51)" fill="#0373bc"/>
  <path id="Tracé_687" data-name="Tracé 687" d="M465.525,72.692H486.2V67.8H460.67V96.409h25.568v-4.9H465.525Z" transform="translate(-248.066 -36.51)" fill="#0373bc"/>
  <rect id="Rectangle_342" data-name="Rectangle 342" width="13.73" height="4.223" transform="translate(219.185 43.184)" fill="#0373bc"/>
  <path id="Tracé_688" data-name="Tracé 688" d="M85.525,72.692H106.2V67.8H80.67V96.409h25.568v-4.9H85.525Z" transform="translate(-43.44 -36.51)" fill="#0373bc"/>
  <rect id="Rectangle_343" data-name="Rectangle 343" width="13.73" height="4.223" transform="translate(43.811 43.184)" fill="#0373bc"/>
  <path id="Tracé_689" data-name="Tracé 689" d="M525.61,96.409h4.855V72.692h20.708V67.8H525.61Z" transform="translate(-283.035 -36.51)" fill="#0373bc"/>
  <rect id="Rectangle_344" data-name="Rectangle 344" width="12.345" height="4.223" transform="translate(249.156 43.184)" fill="#0373bc"/>
  <path id="Tracé_690" data-name="Tracé 690" d="M0,62.93V83.8l7.384-.111c7.9-.111,9.073-.245,12.022-1.385a22.313,22.313,0,0,0,9.272-7.3,23.287,23.287,0,0,0,2.949-6.567,33.506,33.506,0,0,0-.088-11.418A19.629,19.629,0,0,0,20.713,44.141c-3.369-1.574-7.2-2.081-15.544-2.081H0ZM13.439,48.29a22.094,22.094,0,0,1,5.192,1.643A14.1,14.1,0,0,1,25.415,58.7a21.346,21.346,0,0,1,0,8.381,14.454,14.454,0,0,1-7.583,9.23c-2.308,1.135-3.974,1.445-8.03,1.6l-3.614.134V48.032H9.138a32.412,32.412,0,0,1,4.278.245Z" transform="translate(0 -22.649)" fill="#0373bc"/>
  <path id="Tracé_691" data-name="Tracé 691" d="M239.356,67.236a8.36,8.36,0,0,0-3.369,2,6.944,6.944,0,0,0,1.306,11.178,37.339,37.339,0,0,0,3.724,1.846c2.907,1.26,4.1,2.04,4.814,3.078a4.771,4.771,0,0,1-.821,5.88,3.977,3.977,0,0,1-3.369,1.265c-2.7,0-4.191-1.509-4.878-4.924-.069-.286-.291-.286-2.109.111-1.994.42-2.063.461-2.063,1.043a11.088,11.088,0,0,0,1.445,3.969,9.87,9.87,0,0,0,3.59,3.129,11.057,11.057,0,0,0,8.164-.134,8.648,8.648,0,0,0,4.943-8.769c-.221-4-2.04-6-7.583-8.275-3.992-1.638-5.012-2.506-5.012-4.324s1.8-3.369,4.057-3.369a3.964,3.964,0,0,1,3.549,1.551l.821.974.355-.868c.175-.462.6-1.385.886-2.063.641-1.44.577-1.574-1.532-2.7-1.288-.688-1.551-.752-3.692-.8a11.956,11.956,0,0,0-3.231.222Z" transform="translate(-125.247 -36.079)" fill="#0373bc"/>
  <path id="Tracé_692" data-name="Tracé 692" d="M144.934,70.688c.646,1.574,3.461,8.45,6.258,15.3s5.123,12.488,5.187,12.488,3.231-7.518,11.8-28.1l1.038-2.506h-4.744L160.5,77.74c-2.174,5.437-4.038,9.779-4.126,9.692s-1.883-4.546-4.015-9.867L148.5,67.85H143.78Z" transform="translate(-77.424 -36.537)" fill="#0373bc"/>
  <path id="Tracé_693" data-name="Tracé 693" d="M273.723,32.915l-6.969-3L253.232,42.787l6.406-16.231L249.36,20.1l14.3-3.332L271.074,0l1.975,15.087,12.627-2.2L272.569,23.348l5.2-6.4-7.384,1.948-1.066-5.626-2.843,6.881-7.195,1.657.019.06,4.952,3.235-2.884,6.226,5.155-3.775Z" transform="translate(-134.278 0)" fill="#ffd100"/>
</svg>
