<?xml version="1.0" encoding="utf-8"?>
<!-- Generator: Adobe Illustrator 27.0.0, SVG Export Plug-In . SVG Version: 6.00 Build 0)  -->
<svg version="1.1" id="_002-sharing-content" xmlns="http://www.w3.org/2000/svg" xmlns:xlink="http://www.w3.org/1999/xlink"
	 x="0px" y="0px" viewBox="0 0 29 32.7" style="enable-background:new 0 0 29 32.7;" xml:space="preserve">
<style type="text/css">
	.st0{fill:#082234;}
</style>
<path id="Tracé_16" class="st0" d="M5.9,27.5c0,0.4,0.3,0.6,0.6,0.6h15.9c0.4,0,0.6-0.3,0.6-0.6v-9.2c0-0.4-0.3-0.6-0.6-0.6H13
	c-0.4,0-0.6,0.3-0.6,0.7c0,0.3,0.3,0.6,0.6,0.6h8.8v7.9h-4.5l-2.9-4.4c-0.2-0.3-0.6-0.4-0.9-0.2c-0.1,0-0.1,0.1-0.2,0.2l-1.2,1.7
	l-1.5-2.5c-0.2-0.3-0.6-0.4-0.9-0.2c-0.1,0-0.1,0.1-0.2,0.2l-2.4,3.5V19h0.6c0.4,0,0.6-0.3,0.6-0.7c0-0.3-0.3-0.6-0.6-0.6H6.5
	c-0.4,0-0.6,0.3-0.6,0.6L5.9,27.5L5.9,27.5z M12.9,25.3l1-1.4l1.9,2.9h-2L12.9,25.3z M12.3,26.9H7.6l2.5-3.7L12.3,26.9z"/>
<path id="Tracé_17" class="st0" d="M19,24c1.2,0,2.2-1,2.2-2.2s-1-2.2-2.2-2.2s-2.2,1-2.2,2.2v0C16.8,23,17.7,24,19,24z M19,20.9
	c0.5,0,0.9,0.4,0.9,0.9c0,0.5-0.4,0.9-0.9,0.9c-0.5,0-0.9-0.4-0.9-0.9l0,0C18.1,21.3,18.5,20.9,19,20.9z"/>
<path id="Tracé_18" class="st0" d="M16.1,6.3c1,0,1.8-0.8,1.8-1.8c0-1-0.8-1.8-1.8-1.8c-1,0-1.8,0.8-1.8,1.8c0,0.1,0,0.1,0,0.2
	l-1.4,0.6c-0.7-0.7-1.9-0.7-2.6,0.1C9.6,6.1,9.6,7.3,10.4,8C11,8.6,12,8.6,12.7,8.1L14.3,9c0,0,0,0,0,0c0,1,0.8,1.8,1.8,1.8
	c1,0,1.8-0.8,1.8-1.8c0-1-0.8-1.8-1.8-1.8c-0.5,0-1,0.2-1.3,0.6l-1.3-0.7c0-0.2,0.1-0.4,0-0.6l1.4-0.6C15.2,6.1,15.6,6.3,16.1,6.3z
	 M16.1,8.5c0.3,0,0.5,0.2,0.5,0.5s-0.2,0.5-0.5,0.5c-0.3,0-0.5-0.2-0.5-0.5C15.6,8.7,15.8,8.5,16.1,8.5z M16.1,4
	c0.3,0,0.5,0.2,0.5,0.5S16.4,5,16.1,5c-0.3,0-0.5-0.2-0.5-0.5C15.6,4.2,15.8,4,16.1,4z M11.1,6.6c0-0.3,0.2-0.5,0.5-0.5
	c0.3,0,0.5,0.2,0.5,0.5s-0.2,0.5-0.5,0.5C11.3,7.2,11.1,6.9,11.1,6.6C11.1,6.6,11.1,6.6,11.1,6.6L11.1,6.6z"/>
<path id="Tracé_19" class="st0" d="M25.4,13.8c2,0,3.6-1.6,3.6-3.6c0-2-1.6-3.6-3.6-3.6c-1.4,0-2.6,0.8-3.2,2L21,8.2
	c0.1-0.5,0.2-1,0.2-1.5c0-0.4-0.3-0.6-0.7-0.6c-0.3,0-0.6,0.3-0.6,0.6c0,3-2.4,5.4-5.3,5.4S9.1,9.6,9.1,6.6s2.4-5.4,5.3-5.4
	c1.3,0,2.5,0.5,3.5,1.3c0.3,0.2,0.7,0.2,0.9-0.1c0.2-0.3,0.2-0.7-0.1-0.9c-2.8-2.4-7-2.1-9.4,0.7C8.1,3.9,7.5,6.1,8,8.2L6.8,8.6
	C6,6.8,3.8,6.1,2,6.9s-2.5,3-1.7,4.8s3,2.5,4.8,1.7c1.3-0.6,2.2-2.1,2-3.5l1.3-0.5c1,2.1,3,3.6,5.4,3.8v2.2H4.6
	c-0.7,0-1.2,0.5-1.2,1.2v12.4c0,0.7,0.5,1.2,1.2,1.2h7.5l1.4,1.9c0.4,0.5,1.2,0.6,1.7,0.2c0.1-0.1,0.2-0.2,0.2-0.2l1.4-1.9h7.5
	c0.7,0,1.2-0.5,1.2-1.2V16.7c0-0.7-0.5-1.2-1.2-1.2h-9.3v-2.2c2.4-0.2,4.4-1.7,5.4-3.8l1.3,0.5c-0.1,2,1.3,3.7,3.3,3.9
	C25.3,13.8,25.3,13.8,25.4,13.8L25.4,13.8z M3.6,12.5c-1.3,0-2.3-1-2.3-2.3s1-2.3,2.3-2.3s2.3,1,2.3,2.3C5.9,11.5,4.9,12.5,3.6,12.5
	z M24.3,29h-7.5c-0.4,0-0.8,0.2-1,0.5l-1.4,1.9l-1.4-1.9c-0.2-0.3-0.6-0.5-1-0.5H4.7V16.7h19.7V29z M25.4,7.9c1.3,0,2.3,1,2.3,2.3
	s-1,2.3-2.3,2.3c-1.3,0-2.3-1-2.3-2.3c0,0,0,0,0,0C23.1,8.9,24.1,7.9,25.4,7.9z"/>
<path id="Tracé_20" class="st0" d="M9.9,18.6c0.1,0.3,0.5,0.5,0.8,0.3c0.3-0.1,0.5-0.5,0.3-0.8c-0.1-0.3-0.5-0.5-0.8-0.3
	C9.9,17.9,9.7,18.2,9.9,18.6z"/>
<path id="Tracé_21" class="st0" d="M19.6,4.7c0.3,0.2,0.7,0.1,0.9-0.2c0.2-0.3,0.1-0.7-0.2-0.9c-0.3-0.2-0.7-0.1-0.9,0.2
	c0,0,0,0,0,0C19.3,4.1,19.4,4.5,19.6,4.7z"/>
</svg>
