<svg id="_003-research" data-name="003-research" xmlns="http://www.w3.org/2000/svg" width="50.372" height="50.37" viewBox="0 0 50.372 50.37">
  <g id="Groupe_12" data-name="Groupe 12" transform="translate(0 10.455)">
    <g id="Groupe_11" data-name="Groupe 11">
      <path id="Tracé_22" data-name="Tracé 22" d="M45.348,122.234a4.116,4.116,0,0,0,.705-2.309v-.789a4.138,4.138,0,0,0-7.061-2.931,14.562,14.562,0,0,0-27.612,0,4.138,4.138,0,0,0-7.061,2.931v.789a4.116,4.116,0,0,0,.705,2.309A6.341,6.341,0,0,0,0,128.428v1.981a.984.984,0,0,0,.984.984H6.1a.984.984,0,0,0,0-1.968H1.968v-1a4.368,4.368,0,0,1,4.363-4.363h4.656a14.479,14.479,0,0,0,1.932,4.607L1.694,139.9a3.687,3.687,0,0,0,5.214,5.214l6.189-6.189a.984.984,0,0,0-1.391-1.391l-6.188,6.189a1.719,1.719,0,1,1-2.432-2.431L14.1,130.27a14.554,14.554,0,0,0,25.28-6.2h4.656a4.368,4.368,0,0,1,4.363,4.363v1H39.156a.984.984,0,0,0,0,1.968H49.388a.984.984,0,0,0,.984-.984v-1.981A6.341,6.341,0,0,0,45.348,122.234Zm-34.717-2.309a2.172,2.172,0,0,1-4.345,0v-.789a2.172,2.172,0,0,1,4.345,0Zm14.555,13.5a12.593,12.593,0,1,1,12.593-12.593A12.607,12.607,0,0,1,25.186,133.429Zm18.9-13.5a2.172,2.172,0,0,1-4.345,0v-.789a2.172,2.172,0,0,1,4.345,0Z" transform="translate(0 -106.275)" fill="#082234"/>
    </g>
  </g>
  <g id="Groupe_14" data-name="Groupe 14" transform="translate(14.561 14.39)">
    <g id="Groupe_13" data-name="Groupe 13">
      <path id="Tracé_23" data-name="Tracé 23" d="M158.625,146.275a10.62,10.62,0,0,0-7.286,18.351.982.982,0,0,0,.114.106,10.605,10.605,0,0,0,14.345,0,.972.972,0,0,0,.114-.106,10.62,10.62,0,0,0-7.286-18.351Zm0,19.283a8.615,8.615,0,0,1-5.362-1.865,6.072,6.072,0,0,1,10.723,0A8.615,8.615,0,0,1,158.625,165.558Zm-2.073-9.128v-.764a2.073,2.073,0,1,1,4.146,0v.764a2.073,2.073,0,1,1-4.146,0Zm8.874,5.822a7.969,7.969,0,0,0-3.765-3.16,4.023,4.023,0,0,0,1-2.662v-.764a4.041,4.041,0,0,0-8.082,0v.764a4.023,4.023,0,0,0,1,2.662,7.97,7.97,0,0,0-3.764,3.16,8.658,8.658,0,1,1,13.6,0Z" transform="translate(-148 -146.275)" fill="#082234"/>
    </g>
  </g>
  <g id="Groupe_16" data-name="Groupe 16" transform="translate(14.049 38.792)">
    <g id="Groupe_15" data-name="Groupe 15">
      <path id="Tracé_24" data-name="Tracé 24" d="M144.479,394.6a.983.983,0,1,0,.288.7A.991.991,0,0,0,144.479,394.6Z" transform="translate(-142.8 -394.309)" fill="#082234"/>
    </g>
  </g>
  <g id="Groupe_18" data-name="Groupe 18" transform="translate(24.222)">
    <g id="Groupe_17" data-name="Groupe 17">
      <path id="Tracé_25" data-name="Tracé 25" d="M247.187.009a.984.984,0,0,0-.984.984V4.34a.984.984,0,1,0,1.968,0V.993A.984.984,0,0,0,247.187.009Z" transform="translate(-246.203 -0.009)" fill="#082234"/>
    </g>
  </g>
  <g id="Groupe_20" data-name="Groupe 20" transform="translate(24.222 6.592)">
    <g id="Groupe_19" data-name="Groupe 19">
      <path id="Tracé_26" data-name="Tracé 26" d="M247.879,67.3a.983.983,0,1,0,.288.7A.989.989,0,0,0,247.879,67.3Z" transform="translate(-246.2 -67.009)" fill="#082234"/>
    </g>
  </g>
  <g id="Groupe_22" data-name="Groupe 22" transform="translate(30.138 3.571)">
    <g id="Groupe_21" data-name="Groupe 21">
      <path id="Tracé_27" data-name="Tracé 27" d="M309.74,36.6a.984.984,0,0,0-1.391,0l-1.729,1.729a.984.984,0,0,0,1.391,1.391l1.729-1.729A.984.984,0,0,0,309.74,36.6Z" transform="translate(-306.331 -36.307)" fill="#082234"/>
    </g>
  </g>
  <g id="Groupe_24" data-name="Groupe 24" transform="translate(16.537 3.566)">
    <g id="Groupe_23" data-name="Groupe 23">
      <path id="Tracé_28" data-name="Tracé 28" d="M171.517,38.293l-1.746-1.746a.984.984,0,0,0-1.391,1.391l1.746,1.746a.984.984,0,0,0,1.391-1.391Z" transform="translate(-168.091 -36.259)" fill="#082234"/>
    </g>
  </g>
</svg>
