<?xml version="1.0" encoding="utf-8"?>
<!-- Generator: Adobe Illustrator 27.0.0, SVG Export Plug-In . SVG Version: 6.00 Build 0)  -->
<svg version="1.1" id="_003-research" xmlns="http://www.w3.org/2000/svg" xmlns:xlink="http://www.w3.org/1999/xlink" x="0px"
	 y="0px" viewBox="0 0 29 29" style="enable-background:new 0 0 29 29;" xml:space="preserve">
<style type="text/css">
	.st0{fill:#082234;}
</style>
<g id="Groupe_12" transform="translate(0 6.019)">
	<g id="Groupe_11">
		<path id="Tracé_22" class="st0" d="M26.1,9.2c0.3-0.4,0.4-0.9,0.4-1.3V7.4c0-1.3-1.1-2.4-2.4-2.4c-0.6,0-1.2,0.3-1.7,0.7
			C21,1.3,16.2-1,11.8,0.4C9.3,1.3,7.4,3.2,6.5,5.7c-0.9-0.9-2.4-0.9-3.4,0C2.7,6.2,2.5,6.8,2.5,7.4v0.5c0,0.5,0.1,0.9,0.4,1.3
			C1.2,9.5,0,11,0,12.8v1.1c0,0.3,0.3,0.6,0.6,0.6c0,0,0,0,0,0h2.9c0.3,0,0.6-0.3,0.6-0.6c0-0.3-0.3-0.6-0.6-0.6H1.1v-0.6
			c0-1.4,1.1-2.5,2.5-2.5h2.7c0.2,0.9,0.6,1.8,1.1,2.7L1,19.4c-0.8,0.9-0.7,2.2,0.1,3c0.8,0.8,2.1,0.8,2.9,0l3.6-3.6
			c0.2-0.2,0.2-0.6,0-0.8c-0.2-0.2-0.6-0.2-0.8,0l-3.6,3.6c-0.4,0.4-1,0.4-1.4,0c-0.4-0.4-0.4-1,0-1.4c0,0,0,0,0,0l6.3-6.3
			c3,3.5,8.3,4,11.8,1c1.4-1.2,2.3-2.8,2.7-4.5h2.7c1.4,0,2.5,1.1,2.5,2.5v0.6h-5.3c-0.3,0-0.6,0.3-0.6,0.6c0,0.3,0.3,0.6,0.6,0.6
			h5.9c0.3,0,0.6-0.3,0.6-0.6v-1.1C29,11,27.8,9.5,26.1,9.2z M6.1,7.9c0,0.7-0.6,1.2-1.3,1.2C4.2,9,3.6,8.5,3.6,7.9V7.4
			c0-0.7,0.6-1.2,1.3-1.2c0.7,0,1.2,0.5,1.2,1.2V7.9z M14.5,15.6c-4,0-7.2-3.2-7.2-7.2s3.2-7.2,7.2-7.2s7.2,3.2,7.2,7.2l0,0
			C21.7,12.4,18.5,15.6,14.5,15.6z M25.4,7.9c0,0.7-0.6,1.2-1.3,1.2c-0.7,0-1.2-0.5-1.2-1.2V7.4c0-0.7,0.6-1.2,1.3-1.2
			c0.7,0,1.2,0.5,1.2,1.2V7.9z"/>
	</g>
</g>
<g id="Groupe_14" transform="translate(8.383 8.285)">
	<g id="Groupe_13">
		<path id="Tracé_23" class="st0" d="M6.1,0C2.7,0,0,2.7,0,6.1c0,1.7,0.7,3.3,1.9,4.5c0,0,0,0,0.1,0.1c2.3,2.1,5.9,2.1,8.3,0
			c0,0,0,0,0.1-0.1c2.5-2.3,2.6-6.2,0.3-8.6C9.4,0.7,7.8,0,6.1,0L6.1,0z M6.1,11.1C5,11.1,3.9,10.7,3,10c0.9-1.7,3-2.3,4.7-1.4
			C8.4,8.9,8.9,9.4,9.2,10C8.3,10.7,7.2,11.1,6.1,11.1L6.1,11.1z M4.9,5.8V5.4c0-0.7,0.6-1.2,1.2-1.2c0.6,0,1.1,0.5,1.2,1.2v0.4
			C7.3,6.5,6.7,7,6.1,7C5.4,7,4.9,6.5,4.9,5.8z M10,9.2C9.5,8.4,8.8,7.7,7.9,7.4c0.4-0.4,0.6-1,0.6-1.5V5.4c0-1.3-1-2.3-2.3-2.3
			c-1.3,0-2.3,1-2.3,2.3v0.4C3.8,6.4,4,7,4.4,7.4c-0.9,0.4-1.7,1-2.2,1.8C0.5,7,0.9,3.9,3,2.2C5.2,0.5,8.3,0.9,10,3
			C11.5,4.8,11.5,7.4,10,9.2L10,9.2z"/>
	</g>
</g>
<g id="Groupe_16" transform="translate(8.088 22.333)">
	<g id="Groupe_15">
		<path id="Tracé_24" class="st0" d="M1,0.2c-0.2-0.2-0.6-0.2-0.8,0s-0.2,0.6,0,0.8C0.4,1.2,0.7,1.2,1,1c0.1-0.1,0.2-0.3,0.2-0.4
			C1.1,0.4,1.1,0.3,1,0.2z"/>
	</g>
</g>
<g id="Groupe_18" transform="translate(13.945)">
	<g id="Groupe_17">
		<path id="Tracé_25" class="st0" d="M0.6,0C0.3,0,0,0.3,0,0.6v1.9c0,0.3,0.3,0.6,0.6,0.6s0.6-0.3,0.6-0.6V0.6C1.1,0.3,0.9,0,0.6,0
			C0.6,0,0.6,0,0.6,0z"/>
	</g>
</g>
<g id="Groupe_20" transform="translate(13.945 3.795)">
	<g id="Groupe_19">
		<path id="Tracé_26" class="st0" d="M1,0.2c-0.2-0.2-0.6-0.2-0.8,0c-0.2,0.2-0.2,0.6,0,0.8C0.4,1.2,0.7,1.2,1,1
			c0.1-0.1,0.2-0.3,0.2-0.4C1.1,0.4,1.1,0.3,1,0.2z"/>
	</g>
</g>
<g id="Groupe_22" transform="translate(17.351 2.056)">
	<g id="Groupe_21">
		<path id="Tracé_27" class="st0" d="M2,0.2c-0.2-0.2-0.6-0.2-0.8,0l-1,1C-0.1,1.4,0,1.8,0.2,2C0.4,2.2,0.7,2.2,1,2l1-1
			C2.2,0.7,2.2,0.4,2,0.2z"/>
	</g>
</g>
<g id="Groupe_24" transform="translate(9.521 2.053)">
	<g id="Groupe_23">
		<path id="Tracé_28" class="st0" d="M2,1.2l-1-1c-0.2-0.2-0.6-0.2-0.8,0s-0.2,0.6,0,0.8c0,0,0,0,0,0l1,1c0.2,0.2,0.6,0.2,0.8,0
			C2.2,1.7,2.2,1.4,2,1.2z"/>
	</g>
</g>
</svg>
