<svg xmlns="http://www.w3.org/2000/svg" width="45" height="40.027" viewBox="0 0 45 40.027">
  <g id="Administration_des_sites" data-name="Administration des sites" transform="translate(-20 -11)">
    <g id="_004-graphic-design" data-name="004-graphic-design" transform="translate(20 11)">
      <g id="Groupe_25" data-name="Groupe 25">
        <path id="Tracé_29" data-name="Tracé 29" d="M385.279,80.814h0a.881.881,0,1,0,.005,0Z" transform="translate(-350.613 -76.198)" fill="#082234"/>
        <path id="Tracé_30" data-name="Tracé 30" d="M432.561,80.814h-.005a.881.881,0,1,0,.005,0Z" transform="translate(-393.739 -76.198)" fill="#082234"/>
        <path id="Tracé_31" data-name="Tracé 31" d="M337.97,80.814h-.005a.881.881,0,1,0,.005,0Z" transform="translate(-307.462 -76.198)" fill="#082234"/>
        <path id="Tracé_32" data-name="Tracé 32" d="M75.437,80.814h-14.3a.879.879,0,0,0,0,1.758h14.3a.879.879,0,0,0,0-1.758Z" transform="translate(-54.966 -76.198)" fill="#082234"/>
        <path id="Tracé_33" data-name="Tracé 33" d="M40.793,28.292H4.2a4.206,4.206,0,0,0-4.2,4.2V64.119a4.207,4.207,0,0,0,4.2,4.2H40.793A4.208,4.208,0,0,0,45,64.119V55.028a.879.879,0,0,0-1.758,0v9.091a2.449,2.449,0,0,1-2.45,2.442h-3.8V54.4a.878.878,0,0,0-.05-.293L32.794,42.4a.879.879,0,0,0-1.657,0L26.992,54.106a.88.88,0,0,0-.05.293V66.561h-9.2V63.253h.08A1.636,1.636,0,0,0,19.5,61.67V59.034a3.224,3.224,0,0,0,1.447-1.894c.762-2.513-.8-6.246-2.677-8.832A6.17,6.17,0,0,1,17.35,43.9c.066-.826.128-1.606-.563-1.986-.722-.4-1.485.106-2.486.86a15.7,15.7,0,0,0-4.8,5.6c-1.725,3.333-2.331,7.95.258,10.489v2.8a1.636,1.636,0,0,0,1.681,1.582h.083v3.308H4.2a2.447,2.447,0,0,1-2.447-2.442V39.285H43.242v7.869a.879.879,0,1,0,1.758,0V32.489a4.207,4.207,0,0,0-4.207-4.2ZM35.235,66.561h-2.39V55.278h2.39ZM31.966,45.324l1.05,2.964h-2.1Zm-1.672,4.722h3.345L34.87,53.52H29.064Zm-1.6,5.233h2.388V66.561H28.7ZM15.982,66.561h-2.7V63.253h2.7Zm-5-8.956c-1.851-1.845-1.388-5.573.083-8.414a13.868,13.868,0,0,1,4.3-5.01l.219-.162a7.581,7.581,0,0,0,1.272,5.324c1.861,2.558,2.9,5.691,2.416,7.288a1.457,1.457,0,0,1-.821.974H10.981Zm.537,3.89V59.362h6.224v2.132ZM43.242,37.527H1.758V32.489A2.446,2.446,0,0,1,4.2,30.05H40.793a2.447,2.447,0,0,1,2.45,2.44Z" transform="translate(0 -28.292)" fill="#082234"/>
        <path id="Tracé_34" data-name="Tracé 34" d="M492.879,277.691a.879.879,0,0,0-.879.879v.005a.879.879,0,1,0,.879-.884Z" transform="translate(-448.758 -255.771)" fill="#082234"/>
      </g>
    </g>
  </g>
</svg>
