<svg id="Groupe_399" data-name="Groupe 399" xmlns="http://www.w3.org/2000/svg" xmlns:xlink="http://www.w3.org/1999/xlink" width="34.726" height="34.725" viewBox="0 0 34.726 34.725">
  <defs>
    <clipPath id="clip-path">
      <rect id="Rectangle_249" data-name="Rectangle 249" width="34.726" height="34.725" fill="#082234"/>
    </clipPath>
  </defs>
  <g id="Groupe_399-2" data-name="Groupe 399" clip-path="url(#clip-path)">
    <path id="Tracé_495" data-name="Tracé 495" d="M264.264,215a.56.56,0,0,1-.56-.56v-7.316a.56.56,0,0,1,.344-.517l7.181-3a.56.56,0,0,1,.776.517v7.012a.56.56,0,0,1-.326.509l-7.181,3.3a.554.554,0,0,1-.234.052Zm.56-7.5v6.069l6.06-2.787v-5.812Z" transform="translate(-246.824 -190.531)" fill="#082234"/>
    <path id="Tracé_496" data-name="Tracé 496" d="M157,214.712a.559.559,0,0,1-.235-.052l-7.308-3.379a.56.56,0,0,1-.325-.508v-7.037a.56.56,0,0,1,.773-.518l7.308,3a.56.56,0,0,1,.348.518v7.418a.559.559,0,0,1-.56.56Zm-6.748-4.3,6.188,2.861v-6.166l-6.188-2.538Z" transform="translate(-139.584 -190.171)" fill="#082234"/>
    <path id="Tracé_497" data-name="Tracé 497" d="M157.037,166.069a.562.562,0,0,1-.214-.042L149.49,163a.56.56,0,0,1,.011-1.04l7.257-2.821a.559.559,0,0,1,.408,0l7.257,2.847a.56.56,0,0,1,.012,1.038l-7.181,3a.56.56,0,0,1-.216.043ZM151.21,162.5l5.825,2.4,5.689-2.375-5.765-2.262Z" transform="translate(-139.597 -148.92)" fill="#082234"/>
    <path id="Tracé_498" data-name="Tracé 498" d="M244.874,3.608a1.8,1.8,0,1,1,1.8-1.8,1.806,1.806,0,0,1-1.8,1.8m0-2.488a.684.684,0,1,0,.684.684.685.685,0,0,0-.684-.684" transform="translate(-227.511)" fill="#082234"/>
    <path id="Tracé_499" data-name="Tracé 499" d="M73.012,74.818a1.8,1.8,0,1,1,1.275-.527,1.8,1.8,0,0,1-1.275.527Zm0-2.487a.684.684,0,1,0,.484.2A.683.683,0,0,0,73.012,72.331Z" transform="translate(-66.651 -66.653)" fill="#082234"/>
    <path id="Tracé_500" data-name="Tracé 500" d="M1.8,246.671a1.8,1.8,0,1,1,1.8-1.8,1.806,1.806,0,0,1-1.8,1.8m0-2.488a.684.684,0,1,0,.684.684.685.685,0,0,0-.684-.684" transform="translate(0 -227.505)" fill="#082234"/>
    <path id="Tracé_501" data-name="Tracé 501" d="M73.012,418.562a1.8,1.8,0,1,1,1.275-.527,1.8,1.8,0,0,1-1.275.527Zm-.484-2.287a.684.684,0,1,0,1.168.484.678.678,0,0,0-.2-.484A.685.685,0,0,0,72.528,416.275Z" transform="translate(-66.651 -388.395)" fill="#082234"/>
    <path id="Tracé_502" data-name="Tracé 502" d="M244.874,489.737a1.8,1.8,0,1,1,1.8-1.8,1.806,1.806,0,0,1-1.8,1.8m0-2.488a.684.684,0,1,0,.684.684.685.685,0,0,0-.684-.684" transform="translate(-227.511 -455.012)" fill="#082234"/>
    <path id="Tracé_503" data-name="Tracé 503" d="M416.733,418.554a1.8,1.8,0,1,1,1.275-.528,1.8,1.8,0,0,1-1.275.528Zm0-2.487a.684.684,0,1,0,.484.2A.683.683,0,0,0,416.733,416.067Z" transform="translate(-388.369 -388.386)" fill="#082234"/>
    <path id="Tracé_504" data-name="Tracé 504" d="M487.944,246.671a1.8,1.8,0,1,1,1.8-1.8,1.806,1.806,0,0,1-1.8,1.8m0-2.488a.684.684,0,1,0,.684.684.685.685,0,0,0-.684-.684" transform="translate(-455.022 -227.505)" fill="#082234"/>
    <path id="Tracé_505" data-name="Tracé 505" d="M416.733,74.814a1.8,1.8,0,1,1,1.275-.528,1.8,1.8,0,0,1-1.275.528Zm.88-.923h0Zm-.88-1.563a.683.683,0,1,0,.484.2A.683.683,0,0,0,416.733,72.327Z" transform="translate(-388.369 -66.649)" fill="#082234"/>
    <path id="Tracé_506" data-name="Tracé 506" d="M263.064,69.854a.56.56,0,0,1-.56-.56V66.188a.56.56,0,0,1,1.12,0v3.106a.56.56,0,0,1-.56.56" transform="translate(-245.701 -61.427)" fill="#082234"/>
    <path id="Tracé_507" data-name="Tracé 507" d="M126.048,126.609a.558.558,0,0,1-.4-.164l-2.2-2.2a.56.56,0,0,1,.792-.792l2.2,2.2a.56.56,0,0,1-.4.956Z" transform="translate(-115.4 -115.4)" fill="#082234"/>
    <path id="Tracé_508" data-name="Tracé 508" d="M69.293,263.621H66.187a.56.56,0,0,1,0-1.12h3.106a.56.56,0,0,1,0,1.12" transform="translate(-61.426 -245.698)" fill="#082234"/>
    <path id="Tracé_509" data-name="Tracé 509" d="M123.854,370.718a.56.56,0,0,1-.4-.956l2.2-2.2a.56.56,0,1,1,.792.792l-2.2,2.2A.558.558,0,0,1,123.854,370.718Z" transform="translate(-115.402 -343.884)" fill="#082234"/>
    <path id="Tracé_510" data-name="Tracé 510" d="M263.064,415.074a.56.56,0,0,1-.56-.56v-3.106a.56.56,0,0,1,1.12,0v3.106a.56.56,0,0,1-.56.56" transform="translate(-245.701 -384.55)" fill="#082234"/>
    <path id="Tracé_511" data-name="Tracé 511" d="M370.157,370.718a.558.558,0,0,1-.4-.164l-2.2-2.2a.56.56,0,1,1,.792-.792l2.2,2.2a.56.56,0,0,1-.4.956Z" transform="translate(-343.883 -343.884)" fill="#082234"/>
    <path id="Tracé_512" data-name="Tracé 512" d="M414.523,263.621h-3.106a.56.56,0,0,1,0-1.12h3.106a.56.56,0,1,1,0,1.12" transform="translate(-384.558 -245.698)" fill="#082234"/>
    <path id="Tracé_513" data-name="Tracé 513" d="M367.964,126.609a.56.56,0,0,1-.4-.956l2.2-2.2a.56.56,0,0,1,.792.792l-2.2,2.2A.558.558,0,0,1,367.964,126.609Z" transform="translate(-343.886 -115.4)" fill="#082234"/>
  </g>
</svg>
