<svg xmlns="http://www.w3.org/2000/svg" width="29" height="27.317" viewBox="0 0 29 27.317">
  <g id="Bibliothèque_de_médias" data-name="Bibliothèque de médias" transform="translate(-19.865 -10.196)">
    <g id="video" transform="translate(19.865 10.196)">
      <path id="Tracé_353" data-name="Tracé 353" d="M139.18,64.724a2.067,2.067,0,1,0-2.067-2.066A2.069,2.069,0,0,0,139.18,64.724Zm0-3.284a1.217,1.217,0,1,1-1.217,1.217A1.218,1.218,0,0,1,139.18,61.44Zm0,0" transform="translate(-129.348 -57.158)" fill="#082234"/>
      <path id="Tracé_354" data-name="Tracé 354" d="M326.671,312.615a.674.674,0,0,0-1.046.562v2.948a.674.674,0,0,0,1.054.556l2.192-1.5a.674.674,0,0,0-.008-1.118Zm-.2,3.177V313.5l1.7,1.127Zm0,0" transform="translate(-307.182 -294.801)" fill="#082234"/>
      <path id="Tracé_355" data-name="Tracé 355" d="M28.222,12.388H22.263V.865A.866.866,0,0,0,21.4,0H11.86a.425.425,0,0,0,0,.85H21.4a.016.016,0,0,1,.016.016V12.388H20.55V2.137a.425.425,0,0,0-.425-.425H2.138a.425.425,0,0,0-.425.425V16.3a.425.425,0,0,0,.425.425h8.871v.864H.865a.016.016,0,0,1-.016-.016V.865A.016.016,0,0,1,.865.849H9.877a.425.425,0,0,0,0-.85H.865A.866.866,0,0,0,0,.865V17.572a.866.866,0,0,0,.865.865H11.008v8.1a.778.778,0,0,0,.777.777H28.222A.778.778,0,0,0,29,26.539v-5.7a.425.425,0,0,0-.85,0v3.152H11.858V15.713H28.15v3.144a.425.425,0,1,0,.85,0V13.165a.778.778,0,0,0-.777-.777ZM6.851,15.874H2.562v-.4L6.917,9.185a.01.01,0,0,1,.016,0L9.182,12.47l-2.331,3.4Zm19.291,8.966H28.15v1.626H26.142Zm-2.857,0h2.007v1.626H23.285Zm-2.857,0h2.007v1.626H20.429Zm-2.857,0h2.007v1.626H17.572Zm-2.857,0h2.007v1.626H14.715Zm-.85,0v1.626H11.858V24.841Zm-2.08-12.453a.778.778,0,0,0-.777.777v2.709H7.881l6.79-9.918a.01.01,0,0,1,.016,0l4.4,6.432Zm2.08,2.476H11.858V13.238h2.007Zm2.857,0H14.715V13.238h2.007Zm2.857,0H17.572V13.238h2.007Zm.121-3.083-4.312-6.3a.859.859,0,0,0-1.418,0L9.7,11.718,7.634,8.705a.86.86,0,0,0-1.417,0L2.562,13.98V2.562H19.7Zm2.735,3.083H20.429V13.238h2.007Zm2.857,0H23.286V13.238h2.007Zm2.857,0H26.142V13.238H28.15Zm0,0" transform="translate(0 0.001)" fill="#082234" />
    </g>
  </g>
</svg>
