<?xml version="1.0" encoding="utf-8"?>
<!-- Generator: Adobe Illustrator 27.0.0, SVG Export Plug-In . SVG Version: 6.00 Build 0)  -->
<svg version="1.1" id="surface1" xmlns="http://www.w3.org/2000/svg" xmlns:xlink="http://www.w3.org/1999/xlink" x="0px" y="0px"
	 viewBox="0 0 29 29" style="enable-background:new 0 0 29 29;" xml:space="preserve">
<style type="text/css">
	.st0{fill:#082234;}
</style>
<path id="Tracé_35" class="st0" d="M14.5,21.9c-4.1,0-7.4-3.3-7.4-7.4c0-4.1,3.3-7.4,7.4-7.4c0.8,0,1.6,0.1,2.4,0.4
	c0.3,0.1,0.5,0.4,0.4,0.7s-0.4,0.5-0.7,0.4l0,0c-3.3-1.1-6.8,0.6-7.9,3.9c-1.1,3.3,0.6,6.8,3.9,7.9c3.3,1.1,6.8-0.6,7.9-3.9
	c0.5-1.3,0.4-2.8,0-4.1c-0.1-0.3,0-0.6,0.3-0.7s0.6,0,0.7,0.3c1,2.7,0.3,5.7-1.7,7.7C18.3,21.1,16.4,21.9,14.5,21.9z"/>
<path id="Tracé_36" class="st0" d="M17,29h-5c-0.3,0-0.6-0.3-0.6-0.6l0,0V26c-1-0.3-2-0.7-2.9-1.2l-1.7,1.7c-0.2,0.2-0.6,0.2-0.8,0
	L2.5,23c-0.2-0.2-0.2-0.6,0-0.8l1.7-1.7c-0.5-0.9-0.9-1.9-1.2-2.9H0.6C0.3,17.6,0,17.3,0,17c0,0,0,0,0,0v-5c0-0.3,0.3-0.6,0.6-0.6
	l0,0H3c0.3-1,0.7-2,1.2-2.9L2.5,6.8C2.3,6.6,2.3,6.2,2.5,6L6,2.5c0.2-0.2,0.6-0.2,0.8,0l1.7,1.7c0.9-0.5,1.9-0.9,2.9-1.2V0.6
	C11.4,0.3,11.7,0,12,0c0,0,0,0,0,0h5c0.3,0,0.6,0.3,0.6,0.6l0,0V3c1,0.3,2,0.7,2.9,1.2l1.7-1.7c0.2-0.2,0.6-0.2,0.8,0L26.5,6
	c0.2,0.2,0.2,0.6,0,0.8l-1.7,1.7c0.5,0.9,0.9,1.9,1.2,2.9h2.4c0.3,0,0.6,0.3,0.6,0.6l0,0v5c0,0.3-0.3,0.6-0.6,0.6l0,0H26
	c-0.3,1-0.7,2-1.2,2.9l1.7,1.7c0.2,0.2,0.2,0.6,0,0.8L23,26.5c-0.2,0.2-0.6,0.2-0.8,0l-1.7-1.7c-0.9,0.5-1.9,0.9-2.9,1.2v2.4
	C17.6,28.7,17.3,29,17,29z M12.6,27.9h3.9v-2.3c0-0.3,0.2-0.5,0.4-0.6c1.2-0.3,2.3-0.7,3.4-1.4c0.2-0.1,0.5-0.1,0.7,0.1l1.6,1.6
	l2.7-2.7L23.7,21c-0.2-0.2-0.2-0.5-0.1-0.7c0.7-1,1.1-2.2,1.4-3.4c0.1-0.3,0.3-0.4,0.6-0.4h2.3v-3.9h-2.3c-0.3,0-0.5-0.2-0.6-0.4
	c-0.3-1.2-0.7-2.3-1.4-3.4c-0.1-0.2-0.1-0.5,0.1-0.7l1.6-1.6l-2.7-2.7L21,5.3c-0.2,0.2-0.5,0.2-0.7,0.1c-1-0.7-2.2-1.1-3.4-1.4
	c-0.3-0.1-0.4-0.3-0.4-0.6V1.1h-3.9v2.3c0,0.3-0.2,0.5-0.4,0.6c-1.2,0.3-2.3,0.7-3.4,1.4C8.5,5.5,8.2,5.5,8,5.3L6.4,3.7L3.7,6.4
	L5.3,8c0.2,0.2,0.2,0.5,0.1,0.7c-0.7,1-1.1,2.2-1.4,3.4c-0.1,0.3-0.3,0.4-0.6,0.4H1.1v3.9h2.3c0.3,0,0.5,0.2,0.6,0.4
	c0.3,1.2,0.7,2.4,1.4,3.4c0.1,0.2,0.1,0.5-0.1,0.7l-1.6,1.6l2.7,2.7L8,23.7c0.2-0.2,0.5-0.2,0.7-0.1c1,0.7,2.2,1.1,3.4,1.4
	c0.3,0.1,0.4,0.3,0.4,0.6L12.6,27.9L12.6,27.9z"/>
<path id="Tracé_37" class="st0" d="M14.5,18.5c-2.2,0-4-1.8-4-4c0-2.2,1.8-4,4-4c2.2,0,4,1.8,4,4l0,0
	C18.5,16.7,16.7,18.5,14.5,18.5z M14.5,11.7c-1.6,0-2.8,1.3-2.8,2.8s1.3,2.8,2.8,2.8s2.8-1.3,2.8-2.8C17.3,12.9,16.1,11.7,14.5,11.7
	L14.5,11.7z"/>
<path id="Tracé_38" class="st0" d="M19.3,10.3c-0.3,0-0.6-0.3-0.6-0.6c0-0.2,0.1-0.3,0.2-0.4l0,0c0.2-0.2,0.6-0.2,0.8,0
	c0.2,0.2,0.2,0.6,0,0.8l0,0C19.6,10.2,19.4,10.3,19.3,10.3z"/>
</svg>
