<svg xmlns="http://www.w3.org/2000/svg" width="46.737" height="44.025" viewBox="0 0 46.737 44.025">
  <g id="Bibliothèque_de_médias" data-name="Bibliothèque de médias" transform="translate(-19.865 -10.196)">
    <g id="video" transform="translate(19.865 10.196)">
      <path id="Tracé_353" data-name="Tracé 353" d="M140.444,67.251a3.331,3.331,0,1,0-3.331-3.33A3.335,3.335,0,0,0,140.444,67.251Zm0-5.292a1.961,1.961,0,1,1-1.962,1.961A1.964,1.964,0,0,1,140.444,61.96Zm0,0" transform="translate(-124.598 -55.059)" fill="#082234"/>
      <path id="Tracé_354" data-name="Tracé 354" d="M327.311,312.684a1.087,1.087,0,0,0-1.686.906v4.75a1.087,1.087,0,0,0,1.7.9l3.533-2.411a1.086,1.086,0,0,0-.013-1.8Zm-.317,5.12v-3.687l2.742,1.816Zm0,0" transform="translate(-295.901 -283.976)" fill="#082234"/>
      <path id="Tracé_355" data-name="Tracé 355" d="M45.483,19.965h-9.6V1.394A1.4,1.4,0,0,0,34.486,0H19.114a.685.685,0,0,0,0,1.369H34.486a.025.025,0,0,1,.025.025V19.965H33.119V3.445a.685.685,0,0,0-.685-.685H3.445a.684.684,0,0,0-.685.685V26.268a.684.684,0,0,0,.685.685h14.3v1.392H1.394a.025.025,0,0,1-.025-.025V1.394a.025.025,0,0,1,.025-.025H15.919a.685.685,0,0,0,0-1.369H1.394A1.4,1.4,0,0,0,0,1.394V28.319a1.4,1.4,0,0,0,1.395,1.395H17.741V42.771a1.254,1.254,0,0,0,1.253,1.253H45.483a1.254,1.254,0,0,0,1.253-1.253V33.586a.685.685,0,0,0-1.369,0v5.079H19.11V25.324H45.367v5.067a.685.685,0,1,0,1.369,0V21.218a1.254,1.254,0,0,0-1.253-1.253ZM11.042,25.584H4.13v-.649L11.148,14.8a.015.015,0,0,1,.026,0L14.8,20.1l-3.756,5.487Zm31.09,14.451h3.235v2.621H42.132Zm-4.6,0h3.235v2.621H37.527Zm-4.6,0h3.235v2.621H32.923Zm-4.6,0h3.235v2.621H28.319Zm-4.6,0H26.95v2.621H23.715Zm-1.369,0v2.621H19.11V40.034ZM18.994,19.965a1.254,1.254,0,0,0-1.253,1.253v4.366H12.7L23.645,9.6a.016.016,0,0,1,.026,0L30.76,19.965Zm3.351,3.99H19.11V21.334h3.235Zm4.6,0H23.715V21.334H26.95Zm4.6,0H28.319V21.334h3.235Zm.2-4.968L24.8,8.827a1.385,1.385,0,0,0-2.286,0L15.628,18.885,12.3,14.03a1.386,1.386,0,0,0-2.283,0l-5.89,8.5V4.13H31.75Zm4.408,4.968H32.923V21.334h3.235Zm4.6,0H37.528V21.334h3.235Zm4.6,0H42.132V21.334h3.235Zm0,0" transform="translate(0 0.001)" fill="#082234"/>
    </g>
  </g>
</svg>
