<?xml version="1.0" encoding="UTF-8"?>
<svg xmlns="http://www.w3.org/2000/svg" xmlns:xlink="http://www.w3.org/1999/xlink" width="34px" height="35px" viewBox="0 0 34 35" version="1.1">
<g id="surface1">
<path style=" stroke:none;fill-rule:nonzero;fill="#082234";fill-opacity:1;" d="M 34 18.429688 C 33.992188 27.058594 27.390625 34.285156 18.714844 35.15625 C 10.039062 36.027344 2.105469 30.261719 0.347656 21.804688 C -1.410156 13.351562 3.582031 4.953125 11.898438 2.363281 C 12.324219 2.238281 12.773438 2.46875 12.910156 2.886719 C 13.027344 3.304688 12.800781 3.742188 12.386719 3.886719 C 5.140625 6.140625 0.644531 13.292969 1.796875 20.71875 C 2.949219 28.148438 9.40625 33.636719 17 33.636719 C 24.59375 33.636719 31.050781 28.148438 32.203125 20.71875 C 33.355469 13.292969 28.859375 6.140625 21.613281 3.886719 C 21.191406 3.753906 20.953125 3.304688 21.089844 2.886719 C 21.222656 2.464844 21.675781 2.230469 22.101562 2.363281 C 29.199219 4.554688 34.023438 11.070312 34 18.429688 Z M 17 13.621094 C 17.449219 13.621094 17.816406 13.261719 17.816406 12.8125 L 17.816406 0.808594 C 17.816406 0.363281 17.449219 0 17 0 C 16.550781 0 16.183594 0.363281 16.183594 0.808594 L 16.183594 12.820312 C 16.183594 13.265625 16.550781 13.628906 17 13.628906 "/>
</g>
</svg>
