<svg xmlns="http://www.w3.org/2000/svg" width="20.092" height="24.083"><g fill="#082234" data-name="mon compte"><path d="M9.894 11.6a5.613 5.613 0 0 0 4.1-1.7 5.613 5.613 0 0 0 1.7-4.1 5.613 5.613 0 0 0-1.7-4.1 5.8 5.8 0 0 0-8.2 0 5.613 5.613 0 0 0-1.7 4.1 5.613 5.613 0 0 0 1.7 4.1 5.614 5.614 0 0 0 4.1 1.7Zm-3.1-8.9A4.388 4.388 0 0 1 13 2.7a4.193 4.193 0 0 1 1.286 3.1A4.193 4.193 0 0 1 13 8.9a4.387 4.387 0 0 1-6.206 0 4.193 4.193 0 0 1-1.286-3.1 4.193 4.193 0 0 1 1.286-3.1Zm0 0" data-name="Tracé 54"/><path d="M20.043 18.517a14.326 14.326 0 0 0-.2-1.522 11.989 11.989 0 0 0-.374-1.53 7.558 7.558 0 0 0-.629-1.427 5.378 5.378 0 0 0-.948-1.236 4.181 4.181 0 0 0-1.362-.856 4.708 4.708 0 0 0-1.739-.315 1.765 1.765 0 0 0-.943.4c-.283.184-.613.4-.982.633a5.627 5.627 0 0 1-1.271.56 4.934 4.934 0 0 1-3.108 0 5.61 5.61 0 0 1-1.27-.56c-.365-.234-.7-.447-.983-.634a1.763 1.763 0 0 0-.942-.4 4.7 4.7 0 0 0-1.739.315 4.178 4.178 0 0 0-1.363.856 5.381 5.381 0 0 0-.948 1.236 7.572 7.572 0 0 0-.629 1.427 12.016 12.016 0 0 0-.374 1.53 14.229 14.229 0 0 0-.2 1.522c-.032.46-.048.939-.048 1.422a4 4 0 0 0 1.188 3.025 4.275 4.275 0 0 0 3.06 1.116h11.6a4.276 4.276 0 0 0 3.06-1.116 4 4 0 0 0 1.188-3.026c0-.485-.017-.964-.049-1.423Zm-2.112 3.426a2.878 2.878 0 0 1-2.087.727H4.248a2.878 2.878 0 0 1-2.087-.727 2.611 2.611 0 0 1-.749-2c0-.451.015-.9.045-1.325a12.834 12.834 0 0 1 .176-1.37 10.6 10.6 0 0 1 .329-1.349 6.164 6.164 0 0 1 .512-1.16 3.988 3.988 0 0 1 .7-.913 2.774 2.774 0 0 1 .906-.564 3.249 3.249 0 0 1 1.111-.214c.049.026.137.076.28.169.29.189.625.4.994.641a6.992 6.992 0 0 0 1.6.713 6.344 6.344 0 0 0 3.977 0 7 7 0 0 0 1.6-.713c.378-.242.7-.451.993-.64.143-.093.231-.143.28-.169a3.251 3.251 0 0 1 1.112.214 2.778 2.778 0 0 1 .906.564 3.977 3.977 0 0 1 .7.914 6.143 6.143 0 0 1 .512 1.16 10.577 10.577 0 0 1 .329 1.349 12.942 12.942 0 0 1 .176 1.371c.03.426.045.871.045 1.324a2.611 2.611 0 0 1-.75 2Zm0 0" data-name="Tracé 55"/></g></svg>