<?xml version="1.0" encoding="utf-8"?>
<!-- Generator: Adobe Illustrator 27.0.0, SVG Export Plug-In . SVG Version: 6.00 Build 0)  -->
<svg version="1.1" id="pers_morale" xmlns="http://www.w3.org/2000/svg" xmlns:xlink="http://www.w3.org/1999/xlink" x="0px"
	 y="0px" viewBox="0 0 29 29" style="enable-background:new 0 0 29 29;" xml:space="preserve">
<style type="text/css">
	.st0{fill:#000000;}
</style>
<g id="Groupe_400">
	<path id="Tracé_514" class="st0" d="M6.7,0C6.4,0,6.2,0.2,6.2,0.5v9.7H2.4c-0.3,0-0.5,0.2-0.5,0.5V28H0.5C0.2,28,0,28.2,0,28.5
		C0,28.8,0.2,29,0.5,29h28c0.3,0,0.5-0.2,0.5-0.5S28.8,28,28.5,28h-1.4V10.7c0-0.3-0.2-0.5-0.5-0.5h-3.8V0.5l0,0
		c0-0.3-0.2-0.5-0.5-0.5H6.7z M7.2,1h14.5v27h-4.3v-5.7l0,0c0-0.3-0.2-0.5-0.5-0.5h-4.9c-0.3,0-0.5,0.2-0.5,0.5V28H7.2L7.2,1z
		 M9.8,3.3L9.8,3.3c-0.3,0-0.5,0.2-0.4,0.5v3.1c0,0.3,0.2,0.5,0.5,0.5H13c0.3,0,0.5-0.2,0.5-0.5V3.8c0-0.3-0.2-0.5-0.5-0.5L9.8,3.3
		L9.8,3.3z M15.9,3.3L15.9,3.3c-0.3,0-0.5,0.2-0.4,0.5v3.1c0,0.3,0.2,0.5,0.5,0.5h3.2c0.3,0,0.5-0.2,0.5-0.5V3.8
		c0-0.3-0.2-0.5-0.5-0.5L15.9,3.3L15.9,3.3z M10.3,4.3h2.2v2.1h-2.2L10.3,4.3z M16.5,4.3h2.2v2.1h-2.2L16.5,4.3z M9.8,9.4L9.8,9.4
		c-0.3,0-0.5,0.2-0.5,0.5V13c0,0.3,0.2,0.5,0.5,0.5H13c0.3,0,0.5-0.2,0.5-0.5V9.9c0-0.3-0.2-0.5-0.5-0.5L9.8,9.4z M16,9.4L16,9.4
		c-0.3,0-0.5,0.2-0.5,0.5V13c0,0.3,0.2,0.5,0.5,0.5h3.2c0.3,0,0.5-0.2,0.5-0.5V9.9c0-0.3-0.2-0.5-0.5-0.5L16,9.4z M10.3,10.4h2.2
		v2.1h-2.2L10.3,10.4z M16.5,10.4h2.2v2.1h-2.2L16.5,10.4z M2.9,11.2h3.3V28H2.9L2.9,11.2z M22.8,11.2h3.3V28h-3.3L22.8,11.2z
		 M9.8,15.5L9.8,15.5c-0.3,0-0.5,0.2-0.4,0.5v3.1c0,0.3,0.2,0.5,0.5,0.5H13c0.3,0,0.5-0.2,0.5-0.5V16c0-0.3-0.2-0.5-0.5-0.5
		L9.8,15.5L9.8,15.5z M15.9,15.5L15.9,15.5c-0.3,0-0.5,0.2-0.4,0.5v3.1c0,0.3,0.2,0.5,0.5,0.5h3.2c0.3,0,0.5-0.2,0.5-0.5V16
		c0-0.3-0.2-0.5-0.5-0.5L15.9,15.5L15.9,15.5z M10.3,16.5h2.2v2.1h-2.2L10.3,16.5z M16.5,16.5h2.2v2.1h-2.2L16.5,16.5z M12.6,22.8
		h3.9V28h-3.9L12.6,22.8z"/>
</g>
</svg>
