<svg id="sharing" data-name="sharing" xmlns="http://www.w3.org/2000/svg" width="47" height="53.04" viewBox="0 0 47 53.04">
  <path id="Tracé_16" data-name="Tracé 16" d="M92.712,292.352a1.045,1.045,0,0,0,1.045,1.045h25.809a1.045,1.045,0,0,0,1.045-1.045V277.459a1.045,1.045,0,0,0-1.045-1.045H104.283a1.046,1.046,0,0,0,0,2.09h14.238v12.8h-7.313l-4.639-7.173a1.06,1.06,0,0,0-1.729-.038l-1.985,2.791-2.428-4.006a1.06,1.06,0,0,0-1.76-.042L94.8,288.582V278.5H95.84a1.046,1.046,0,0,0,0-2.09H93.756a1.045,1.045,0,0,0-1.045,1.045v14.893Zm11.324-3.517,1.615-2.272,3.069,4.745h-3.186Zm-.945,2.473h-7.6l4-5.945Zm0,0" transform="translate(-83.159 -247.779)" fill="#082234"/>
  <path id="Tracé_17" data-name="Tracé 17" d="M266.3,314.425a3.546,3.546,0,1,0-3.547-3.546A3.551,3.551,0,0,0,266.3,314.425Zm0-5a1.457,1.457,0,1,1-1.456,1.457A1.459,1.459,0,0,1,266.3,309.422Zm0,0" transform="translate(-235.586 -275.494)" fill="#082234"/>
  <path id="Tracé_18" data-name="Tracé 18" d="M164.1,47.6a2.96,2.96,0,1,0-2.945-2.661l-2.262,1.034a2.96,2.96,0,1,0-.322,4.562l2.57,1.365c0,.018,0,.035,0,.053a2.964,2.964,0,1,0,.784-2L159.742,48.8a3,3,0,0,0,.064-.939l2.282-1.042A2.949,2.949,0,0,0,164.1,47.6Zm0,3.481a.871.871,0,1,1-.87.87A.871.871,0,0,1,164.1,51.086Zm0-7.312a.87.87,0,1,1-.87.87A.871.871,0,0,1,164.1,43.774Zm-8.111,4.352a.87.87,0,1,1,.87.87A.871.871,0,0,1,155.988,48.125Zm0,0" transform="translate(-138.007 -37.365)" fill="#082234"/>
  <path id="Tracé_19" data-name="Tracé 19" d="M41.679,22.327a5.821,5.821,0,1,0-5.246-8.345l-1.977-.728a10.742,10.742,0,0,0,.293-2.495,1.046,1.046,0,0,0-2.09,0,8.67,8.67,0,1,1-3-6.556,1.046,1.046,0,0,0,1.369-1.58A10.761,10.761,0,0,0,13.524,13.262l-1.957.721a5.823,5.823,0,1,0,.553,2.023l2.087-.768a10.784,10.784,0,0,0,8.738,6.231v3.553h-15A1.984,1.984,0,0,0,5.966,27V47.147a1.984,1.984,0,0,0,1.981,1.981H20.081l2.308,3.121a2,2,0,0,0,3.2-.016l2.249-3.105h12.2a1.984,1.984,0,0,0,1.981-1.981V27a1.983,1.983,0,0,0-1.981-1.981h-15V21.469a10.784,10.784,0,0,0,8.741-6.238l2.105.775a5.881,5.881,0,0,0,5.8,6.321ZM6.321,20.237a3.731,3.731,0,1,1,3.732-3.731A3.736,3.736,0,0,1,6.321,20.237Zm33.6,26.8H27.78a1.987,1.987,0,0,0-1.6.819l-2.195,3.03-2.252-3.046a1.989,1.989,0,0,0-1.593-.8H8.056V27.111H39.923Zm1.756-34.264a3.731,3.731,0,1,1-3.732,3.731A3.736,3.736,0,0,1,41.679,12.775Zm0,0" transform="translate(-0.5 0)" fill="#082234"/>
  <path id="Tracé_20" data-name="Tracé 20" d="M154.008,277.882a1.044,1.044,0,1,0,.565-1.365A1.055,1.055,0,0,0,154.008,277.882Zm0,0" transform="translate(-138.037 -247.802)" fill="#082234"/>
  <path id="Tracé_21" data-name="Tracé 21" d="M303.931,56.63a1.045,1.045,0,1,0-.289-1.448A1.055,1.055,0,0,0,303.931,56.63Zm0,0" transform="translate(-272.085 -49.053)" fill="#082234"/>
</svg>
