<svg id="surface1" xmlns="http://www.w3.org/2000/svg" width="29" height="29" viewBox="0 0 29 29">
  <path id="Tracé_35" data-name="Tracé 35" d="M133.173,140.8a7.364,7.364,0,1,1,2.364-14.338.566.566,0,1,1-.363,1.073,6.23,6.23,0,1,0,3.853,3.765.566.566,0,0,1,1.064-.388,7.393,7.393,0,0,1-1.712,7.731A7.315,7.315,0,0,1,133.173,140.8Zm0,0" transform="translate(-118.687 -118.931)" fill="#082234"/>
  <path id="Tracé_36" data-name="Tracé 36" d="M16.992,29H12.008a.566.566,0,0,1-.566-.566v-2.42A11.8,11.8,0,0,1,8.521,24.8L6.81,26.515a.566.566,0,0,1-.8,0L2.485,22.991a.566.566,0,0,1,0-.8L4.2,20.479a11.8,11.8,0,0,1-1.209-2.92H.566A.566.566,0,0,1,0,16.992V12.008a.566.566,0,0,1,.566-.566H2.99A11.8,11.8,0,0,1,4.2,8.527L2.485,6.81a.566.566,0,0,1,0-.8L6.009,2.485a.566.566,0,0,1,.8,0l1.72,1.72A11.8,11.8,0,0,1,11.441,3V.566A.566.566,0,0,1,12.008,0h4.984a.566.566,0,0,1,.566.566V3A11.8,11.8,0,0,1,20.464,4.21L22.19,2.485a.566.566,0,0,1,.8,0l3.525,3.525a.567.567,0,0,1,0,.8L24.79,8.536A11.8,11.8,0,0,1,26,11.441h2.438a.566.566,0,0,1,.566.566v4.984a.566.566,0,0,1-.566.566H26a11.8,11.8,0,0,1-1.2,2.911l1.72,1.72a.566.566,0,0,1,0,.8l-3.525,3.525a.567.567,0,0,1-.8,0L20.473,24.8a11.806,11.806,0,0,1-2.915,1.211v2.424A.566.566,0,0,1,16.992,29Zm-4.418-1.133h3.852v-2.3a.567.567,0,0,1,.442-.553,10.679,10.679,0,0,0,3.388-1.407.566.566,0,0,1,.7.078l1.63,1.63,2.724-2.723L23.68,20.956a.566.566,0,0,1-.078-.7A10.682,10.682,0,0,0,25,16.868a.566.566,0,0,1,.553-.443h2.313V12.574H25.551A.566.566,0,0,1,25,12.132a10.686,10.686,0,0,0-1.4-3.379.566.566,0,0,1,.078-.7L25.314,6.41,22.59,3.686,20.951,5.326a.566.566,0,0,1-.7.078A10.681,10.681,0,0,0,16.868,4a.566.566,0,0,1-.442-.552V1.133H12.574V3.446A.566.566,0,0,1,12.132,4,10.682,10.682,0,0,0,8.747,5.4a.566.566,0,0,1-.7-.078L6.41,3.686,3.686,6.41,5.317,8.04a.567.567,0,0,1,.078.7,10.68,10.68,0,0,0-1.407,3.388.566.566,0,0,1-.552.442h-2.3v3.852h2.3a.566.566,0,0,1,.553.443,10.675,10.675,0,0,0,1.4,3.393.566.566,0,0,1-.078.7L3.686,22.59,6.41,25.314l1.625-1.625a.566.566,0,0,1,.7-.078,10.684,10.684,0,0,0,3.393,1.405.566.566,0,0,1,.443.553v2.3Zm0,0" fill="#082234"/>
  <path id="Tracé_37" data-name="Tracé 37" d="M189.836,194.059a3.965,3.965,0,1,1,3.965-3.965A3.969,3.969,0,0,1,189.836,194.059Zm0-6.8a2.832,2.832,0,1,0,2.832,2.832A2.835,2.835,0,0,0,189.836,187.262Zm0,0" transform="translate(-175.343 -175.587)" fill="#082234"/>
  <path id="Tracé_38" data-name="Tracé 38" d="M330.931,162.143a.566.566,0,0,1-.4-.967l.027-.027a.566.566,0,0,1,.8.8l-.027.027A.564.564,0,0,1,330.931,162.143Zm0,0" transform="translate(-311.653 -151.864)" fill="#082234"/>
</svg>
