<?xml version="1.0" standalone="no"?>
<!DOCTYPE svg PUBLIC "-//W3C//DTD SVG 20010904//EN"
 "http://www.w3.org/TR/2001/REC-SVG-20010904/DTD/svg10.dtd">
<svg version="1.0" xmlns="http://www.w3.org/2000/svg"
 width="1115.000000pt" height="213.000000pt" viewBox="0 0 1115.000000 213.000000"
 preserveAspectRatio="xMidYMid meet">

<g transform="translate(0.000000,213.000000) scale(0.100000,-0.100000)"
fill="#000000" stroke="none">
<path d="M1238 2115 c-450 -71 -810 -428 -883 -880 -55 -338 56 -679 299 -921
497 -495 1317 -386 1675 222 117 200 165 462 126 701 -93 575 -638 968 -1217
878z m142 -35 c0 -29 -51 -129 -117 -228 -41 -62 -96 -152 -121 -200 l-47 -87
-53 17 c-82 28 -175 32 -287 15 -55 -9 -133 -19 -174 -22 l-74 -6 21 33 c129
203 306 347 532 432 105 39 320 70 320 46z m205 -5 c202 -36 375 -127 530
-280 94 -92 184 -209 172 -222 -3 -2 -140 -2 -305 2 l-299 8 -12 46 c-18 71
-60 146 -145 260 -42 57 -88 126 -102 153 l-24 48 49 0 c26 0 88 -7 136 -15z
m-1025 -554 c20 -21 47 -66 60 -101 25 -68 93 -178 172 -278 l49 -63 -44 -42
c-61 -58 -105 -131 -161 -268 -48 -117 -95 -189 -122 -189 -20 0 -76 123 -104
225 -28 103 -38 313 -20 422 21 133 94 333 121 333 7 0 29 -17 49 -39z m1775
-34 c19 -40 47 -117 61 -172 34 -128 38 -333 10 -460 -84 -380 -374 -681 -751
-781 -136 -37 -355 -39 -485 -7 -187 47 -364 147 -496 280 -66 67 -154 183
-154 204 0 26 50 33 235 31 254 -2 368 8 429 39 58 28 120 95 164 175 l33 59
-5 -90 c-3 -49 -8 -151 -11 -225 -3 -74 -8 -152 -11 -172 l-6 -38 55 0 56 0
-5 53 c-6 81 -24 391 -24 427 0 31 2 29 48 -41 66 -100 133 -164 201 -191 50
-20 74 -22 221 -22 91 0 215 2 276 4 l112 4 -33 38 c-17 21 -64 100 -104 175
-39 76 -98 174 -130 218 l-59 80 43 37 c46 41 72 79 159 237 65 117 123 211
131 211 3 0 21 -33 40 -73z m-695 -52 c-19 -93 -75 -191 -157 -274 l-75 -76 6
58 c13 122 71 238 171 339 58 59 60 60 63 34 2 -14 -2 -51 -8 -81z m-429 28
c40 -38 89 -94 110 -125 40 -63 73 -167 67 -213 -4 -30 -4 -29 -94 60 -105
105 -162 202 -171 290 -4 34 -2 55 4 55 6 0 43 -30 84 -67z m112 -355 c31 -15
57 -31 57 -36 0 -5 -37 -17 -82 -28 -112 -26 -292 -26 -365 -1 -64 23 -73 34
-36 48 147 57 324 64 426 17z m550 -5 c26 -12 47 -26 47 -31 0 -16 -76 -41
-156 -53 -55 -9 -94 -8 -151 0 -83 12 -183 40 -183 51 0 9 38 28 90 45 71 23
291 15 353 -12z m-493 -111 c0 -135 -92 -297 -202 -353 -36 -18 -38 -19 -38
-1 0 63 67 235 117 300 25 33 98 92 115 92 4 0 8 -17 8 -38z m86 10 c101 -73
168 -188 203 -343 7 -31 6 -39 -5 -39 -26 0 -148 133 -182 197 -54 102 -87
213 -64 213 5 0 27 -13 48 -28z"/>
<path d="M4245 1609 c-80 -10 -193 -43 -245 -69 -19 -10 -49 -33 -67 -52 -58
-60 -63 -86 -63 -310 0 -176 3 -208 19 -244 59 -129 251 -182 626 -171 321 9
451 54 506 172 16 35 19 67 19 234 0 229 -6 258 -70 322 -50 50 -115 80 -230
105 -80 18 -397 27 -495 13z m370 -214 c65 -27 70 -41 70 -209 0 -127 -3 -156
-17 -178 -25 -38 -97 -51 -250 -46 -136 4 -170 16 -188 64 -14 37 -13 288 2
319 15 34 59 56 128 66 70 9 216 1 255 -16z"/>
<path d="M6572 1583 c-28 -55 -362 -809 -362 -817 0 -3 71 -6 158 -6 l158 0
35 73 34 72 240 0 240 0 37 -77 38 -78 155 0 c86 0 154 3 152 8 -2 4 -89 199
-192 435 l-189 427 -243 0 -243 0 -18 -37z m337 -331 c33 -87 61 -161 61 -165
0 -4 -61 -7 -135 -7 -74 0 -135 3 -135 6 0 14 135 324 141 324 3 0 34 -71 68
-158z"/>
<path d="M9145 1610 c-95 -13 -198 -47 -244 -80 -22 -16 -49 -50 -62 -77 -23
-46 -24 -59 -27 -273 -4 -261 2 -285 74 -349 52 -45 115 -63 286 -82 189 -21
478 5 567 51 71 36 120 119 121 203 l0 47 -155 0 -154 0 -7 -35 c-14 -77 -98
-112 -250 -102 -93 5 -136 24 -164 70 -18 28 -20 51 -20 187 1 247 21 272 225
274 132 1 168 -14 200 -82 l19 -42 153 0 153 0 0 28 c0 43 -27 126 -51 156
-29 37 -105 73 -191 92 -88 19 -372 27 -473 14z"/>
<path d="M10356 1609 c-163 -21 -287 -73 -336 -140 -42 -59 -52 -124 -48 -328
l3 -178 30 -49 c42 -67 100 -100 221 -127 86 -19 129 -22 334 -22 205 0 248 3
334 22 121 27 179 60 221 127 l30 49 3 188 c4 212 -6 268 -57 329 -73 89 -279
142 -546 139 -66 -1 -151 -6 -189 -10z m356 -210 c70 -18 78 -41 78 -214 0
-173 -8 -195 -78 -215 -48 -13 -256 -13 -304 0 -70 20 -78 42 -78 217 l0 155
28 28 c20 19 43 30 73 34 24 3 55 8 69 10 35 6 167 -3 212 -15z"/>
<path d="M5200 1186 l0 -426 145 0 145 0 0 109 0 109 238 4 c185 4 248 9 290
22 117 38 162 118 162 289 0 112 -17 167 -68 220 -75 80 -130 89 -554 94
l-358 5 0 -426z m621 200 c36 -16 50 -92 28 -154 -15 -42 -53 -52 -206 -52
l-123 0 0 110 0 109 98 3 c97 3 173 -3 203 -16z"/>
<path d="M7580 1186 l0 -426 155 0 155 0 0 115 0 115 153 0 c164 0 212 -8 254
-44 24 -21 27 -31 31 -109 l5 -87 153 0 154 0 0 110 c0 72 -5 122 -14 144 -18
44 -73 76 -143 83 l-56 6 64 21 c36 12 78 29 93 39 42 28 66 90 66 173 0 140
-49 216 -167 256 -65 21 -84 22 -485 26 l-418 3 0 -425z m697 192 c19 -18 23
-32 23 -83 0 -97 -5 -100 -209 -100 l-166 0 -3 103 -3 102 168 0 c157 0 168
-1 190 -22z"/>
<path d="M2972 1580 c-119 -17 -173 -38 -223 -88 -74 -74 -88 -175 -36 -267
43 -75 137 -100 427 -115 107 -6 210 -13 228 -16 45 -7 72 -36 72 -78 0 -86
-31 -100 -215 -100 -155 1 -187 9 -213 54 l-17 30 -152 0 -153 0 0 -30 c0 -76
71 -158 161 -184 82 -25 261 -39 399 -32 166 9 325 33 370 56 91 46 132 144
111 262 -12 68 -28 91 -85 120 -59 30 -154 46 -350 58 -224 14 -242 16 -267
41 -27 27 -25 84 4 113 19 19 39 25 105 31 161 14 272 -13 272 -66 0 -18 9
-19 146 -19 l147 0 -5 51 c-8 84 -60 131 -183 165 -70 19 -439 29 -543 14z"/>
<path d="M0 450 c0 -19 7 -20 200 -20 193 0 200 1 200 20 0 19 -7 20 -200 20
-193 0 -200 -1 -200 -20z"/>
<path d="M2390 450 c0 -20 7 -20 4370 -20 4363 0 4370 0 4370 20 0 20 -7 20
-4370 20 -4363 0 -4370 0 -4370 -20z"/>
</g>
</svg>
