<?xml version="1.0" encoding="utf-8"?>
<!-- Generator: Adobe Illustrator 25.4.1, SVG Export Plug-In . SVG Version: 6.00 Build 0)  -->
<svg version="1.1" id="Calque_1" xmlns="http://www.w3.org/2000/svg" xmlns:xlink="http://www.w3.org/1999/xlink" x="0px" y="0px"
	 viewBox="0 0 385.9 83.1" style="enable-background:new 0 0 385.9 83.1;" xml:space="preserve">
<style type="text/css">
	.st0{fill:#0373BC;}
	.st1{fill:#FFC500;}
</style>
<g id="prefix__logo_Eurochef" transform="translate(-465.339 -255.65)">
	<path id="prefix__Tracé_1" class="st0" d="M472.4,289.9h41.8v-7.1h-48.9v55h49v-7.1h-41.9L472.4,289.9z"/>
	<path id="prefix__Rectangle_1" class="st0" d="M480.5,306.5h26.3v6.3h-26.3V306.5z"/>
	<path id="prefix__Tracé_2" class="st0" d="M598.1,325.4c2.5-0.9,4.7-2.7,6.2-4.9c1.5-2.6,2.3-5.5,2.2-8.5c0-2.1-0.3-4.2-1-6.1
		c-1.2-3.5-4-6.3-7.5-7.6c-2-0.7-4.1-1.1-6.2-1h-23.3v40.6h6.9v-33.7h16.4c2.1-0.1,4.2,0.6,5.8,2c1.4,1.3,2.1,3.3,2.1,6
		c0.1,2.2-0.6,4.4-2,6.1c-1.6,1.5-3.7,2.3-5.9,2.1h-11v6.1h9.3l10.3,11.3h9.8L598,325.4L598.1,325.4z"/>
	<path id="prefix__Tracé_3" class="st0" d="M683.7,284.7c-3.2,1.2-6,3.1-8.4,5.4c-2.4,2.4-4.3,5.3-5.6,8.5c-1.4,3.5-2.1,7.3-2,11.1
		c0,3.8,0.7,7.6,2,11.2c2.5,6.6,7.6,12,14.1,14.8c3.3,1.5,7,2.2,10.6,2.1h23.9v-7.1h-23.8c-2.7,0-5.3-0.5-7.8-1.6
		c-2.3-1-4.4-2.5-6.2-4.3c-1.8-1.9-3.1-4.1-4.1-6.5c-1-2.6-1.5-5.4-1.5-8.1c0-2.8,0.5-5.6,1.5-8.2c0.9-2.4,2.3-4.6,4.1-6.4
		c1.8-1.8,3.9-3.2,6.2-4.2c2.5-1,5.1-1.5,7.8-1.5h23.8v-7.1h-23.9C690.7,282.7,687.1,283.4,683.7,284.7"/>
	<path id="prefix__Rectangle_2" class="st0" d="M724.4,297h6.9v40.8h-6.9V297z"/>
	<path id="prefix__Tracé_4" class="st0" d="M758.3,313.9h-23.5v6h23.5v17.9h6.9V297h-6.9V313.9z"/>
	<path id="prefix__Tracé_5" class="st0" d="M779.3,303.9h29.3V297h-36.2v40.6h36.3v-6.9h-29.4L779.3,303.9z"/>
	<path id="prefix__Rectangle_3" class="st0" d="M781.8,313.8h19.5v6h-19.5V313.8z"/>
	<path id="prefix__Tracé_6" class="st0" d="M815,337.6h6.9v-33.7h29.4V297H815L815,337.6z"/>
	<path id="prefix__Rectangle_4" class="st0" d="M824.3,313.8h17.5v6h-17.5V313.8z"/>
	<path id="prefix__Tracé_7" class="st0" d="M631.5,338.8c11.8,0,21.3-9.6,21.3-21.3c0-11.8-9.6-21.3-21.3-21.3
		c-11.8,0-21.3,9.6-21.3,21.3C610.2,329.2,619.7,338.8,631.5,338.8 M631.5,303.2c7.9,0,14.3,6.4,14.3,14.3c0,7.9-6.4,14.3-14.3,14.3
		c-7.9,0-14.3-6.4-14.3-14.3v0C617.2,309.6,623.6,303.2,631.5,303.2"/>
	<path id="prefix__Tracé_8" class="st0" d="M540.7,338.8c11.2,0,20.3-9.1,20.3-20.3v-21.3h-7v21.3c0,7.4-6,13.4-13.3,13.4
		c-7.4,0-13.4-6-13.4-13.3c0,0,0,0,0,0v-21.3h-7v21.3C520.4,329.7,529.5,338.8,540.7,338.8"/>
	<path id="prefix__Tracé_9" class="st1" d="M662.4,302.2l-9.8-4.2l-19.1,18.2l9.1-22.9l-14.5-9.1l20.2-4.7l10.5-23.7l2.8,21.3
		l17.8-3.1l-18.5,14.8l7.4-9.1l-10.4,2.8l-1.5-8l-4,9.7l-10.2,2.3l0,0.1l7,4.6l-4.1,8.8l7.3-5.3L662.4,302.2z"/>
</g>
</svg>
